# xmcd
#
# Track frame offsets: 
#        150
#        8857
#        20297
#        32262
#        45810
#        57595
#        69922
#        79685
#        90770
#        103502
#
# Disc length: 1523 seconds
#
# Revision: 0
# Processed by: cddbd v1.5.2PL0 Copyright (c) Steve Scherf et al.
# Submitted via: ExactAudioCopy v0.95b4
#
DISCID=5e05f10a
DTITLE=Gibson, Don - Country Gems
DYEAR=1998
DGENRE=Country
TTITLE0=Sweet Dreams
TTITLE1=Oh Lonesome Me
TTITLE2=Four Walls
TTITLE3=Faded Love
TTITLE4=I Can't Stop Loving You
TTITLE5=Half As Much
TTITLE6=Don't Rob Another Man's Castle
TTITLE7=Singing The Blues
TTITLE8=Almost Persuaded
TTITLE9=(I'd Be) A Legend In My Time
EXTD=
EXTT0=
EXTT1=
EXTT2=
EXTT3=
EXTT4=
EXTT5=
EXTT6=
EXTT7=
EXTT8=
EXTT9=
PLAYORDER=
